<svg width="226" height="226" viewBox="0 0 226 226" fill="none" xmlns="http://www.w3.org/2000/svg">
<path d="M226 113L113 113L113 -3.14345e-06L220.283 6.23551e-06C223.44 6.51155e-06 226 2.55971 226 5.71727L226 113Z" fill="#FFE173"/>
<path d="M226 220.283C226 223.44 223.44 226 220.283 226L113 226L113 113L226 113L226 220.283Z" fill="#7D2E34"/>
<path d="M113 113L6.73532e-06 113L1.61143e-05 5.71726C1.63903e-05 2.5597 2.55972 -2.91967e-06 5.71728 -2.64363e-06L113 6.73532e-06L113 113Z" fill="#EE9A3D"/>
<path d="M113 226L5.71727 226C2.55971 226 6.9591e-06 223.44 7.23514e-06 220.283L1.66141e-05 113L113 113L113 226Z" fill="#1D1315"/>
</svg>
